<svg width="20" height="19" viewBox="0 0 20 19" fill="none" xmlns="http://www.w3.org/2000/svg">
<path d="M9.99967 0.333008C15.0624 0.333008 19.1663 4.43692 19.1663 9.49967C19.1663 14.5624 15.0624 18.6663 9.99967 18.6663C4.93692 18.6663 0.833008 14.5624 0.833008 9.49967C0.833008 4.43692 4.93692 0.333008 9.99967 0.333008ZM11.5424 13.1205C10.5148 13.1814 9.48452 13.1814 8.45692 13.1205C8.58159 13.841 8.74017 14.49 8.92442 15.0437C9.15542 15.7367 9.41026 16.2317 9.64859 16.5342C9.72926 16.635 9.85301 16.833 10.0015 16.833C10.1344 16.8211 10.2783 16.6249 10.3498 16.5342C10.5882 16.2317 10.8439 15.7367 11.074 15.0437C11.2779 14.4153 11.4351 13.7724 11.5424 13.1205ZM16.8866 12.0251C16.6437 12.1296 16.3879 12.2258 16.123 12.3138C15.342 12.5742 14.429 12.7832 13.428 12.928C13.3026 13.8426 13.0971 14.7444 12.8138 15.623C12.7258 15.8888 12.6296 16.1437 12.5251 16.3866C13.5245 16.0187 14.4321 15.4382 15.1852 14.6852C15.9382 13.9321 16.5187 13.0245 16.8866 12.0251ZM3.11276 12.0251C3.48061 13.0245 4.06112 13.9321 4.81417 14.6852C5.56722 15.4382 6.47483 16.0187 7.47426 16.3866C7.36732 16.1362 7.27098 15.8815 7.18551 15.623C6.90224 14.7444 6.69673 13.8426 6.57134 12.928C5.65675 12.8026 4.75495 12.5971 3.87634 12.3138C3.61051 12.2258 3.35567 12.1296 3.11276 12.0251ZM8.23234 7.73234C8.14323 8.90888 8.14323 10.0905 8.23234 11.267C9.40751 11.3559 10.5918 11.3559 11.767 11.267C11.8561 10.0905 11.8561 8.90888 11.767 7.73234C10.5905 7.64322 9.40888 7.64322 8.23234 7.73234ZM13.6205 7.95692C13.6814 8.98452 13.6814 10.0148 13.6205 11.0424C14.2723 10.9348 14.9152 10.7785 15.5437 10.5749C16.2367 10.3439 16.7317 10.0891 17.0342 9.85076C17.135 9.77101 17.333 9.64542 17.333 9.49784C17.3211 9.36492 17.1249 9.22101 17.0342 9.14951C16.7317 8.91117 16.2367 8.65542 15.5437 8.42534C14.9152 8.22173 14.2723 8.06454 13.6205 7.95692ZM6.37884 7.95692C5.65834 8.08159 5.01026 8.24017 4.45567 8.42442C3.76267 8.65542 3.26859 8.91026 2.96517 9.14859C2.74517 9.32276 2.67917 9.45384 2.66909 9.48592C2.62784 9.62342 2.87992 9.78201 2.96517 9.84984C3.26767 10.0882 3.76267 10.3439 4.45567 10.574C5.01026 10.7592 5.65834 10.9178 6.37884 11.0415C6.31794 10.0145 6.31794 8.98391 6.37884 7.95692ZM7.47426 2.61276C6.47486 2.98066 5.56728 3.5612 4.81424 4.31424C4.0612 5.06728 3.48066 5.97486 3.11276 6.97426C3.35567 6.86976 3.61142 6.77351 3.87634 6.68551C4.75495 6.40224 5.65675 6.19673 6.57134 6.07134C6.71617 5.07034 6.92517 4.15734 7.18551 3.37634C7.27351 3.11051 7.36976 2.85567 7.47426 2.61276ZM12.5251 2.61276C12.6296 2.85567 12.7258 3.11142 12.8138 3.37634C13.0742 4.15734 13.2832 5.07034 13.428 6.07134C14.429 6.21617 15.342 6.42517 16.123 6.68551C16.3888 6.77351 16.6437 6.86976 16.8866 6.97426C16.5187 5.97483 15.9382 5.06722 15.1852 4.31417C14.4321 3.56112 13.5245 2.98061 12.5251 2.61276ZM9.99967 2.16634C9.87226 2.16634 9.71367 2.38359 9.64951 2.46517C9.41117 2.76767 9.15542 3.26267 8.92534 3.95567C8.72172 4.58416 8.56545 5.22702 8.45784 5.87884C9.48483 5.81794 10.5145 5.81794 11.5415 5.87884C11.4339 5.22702 11.2776 4.58416 11.074 3.95567C10.8439 3.26267 10.5882 2.76859 10.3498 2.46517C10.2857 2.38267 10.128 2.16634 9.99967 2.16634Z" fill="white" fill-opacity="0.6"/>
</svg>
