<?xml version="1.0" encoding="utf-8"?>
<!-- Generator: Adobe Illustrator 22.0.1, SVG Export Plug-In . SVG Version: 6.00 Build 0)  -->
<svg version="1.1" id="圖層_1" xmlns="http://www.w3.org/2000/svg" xmlns:xlink="http://www.w3.org/1999/xlink" x="0px" y="0px"
	 viewBox="0 0 276.3 145.5" style="enable-background:new 0 0 276.3 145.5;" xml:space="preserve">
<style type="text/css">
	.st0{fill:#2D2554;}
</style>
<path class="st0" d="M268.4,103.6c-1.2-3.6-24.9-58.2-24.9-58.2c-14.4-31.4-33.8-39.9-33.8-39.9C182.5-6.4,165.4,16,165.4,16
	c-21.5,16.9-41.2,4-41.2,4c-21.6-17.2-55.5,3.5-64.9,9.8h0c0,0-38.3,20.7-56.6,46.4c0,0-16.8,53.3,79.1,27.7c0,0,81.5-31.9,130,3.8
	c0,0,20.5,15.7,33,29.1C244.9,136.8,293.3,165.2,268.4,103.6z"/>
</svg>
