<?xml version="1.0" encoding="utf-8"?>
<!-- Generator: Adobe Illustrator 22.0.1, SVG Export Plug-In . SVG Version: 6.00 Build 0)  -->
<svg version="1.1" id="圖層_1" xmlns="http://www.w3.org/2000/svg" xmlns:xlink="http://www.w3.org/1999/xlink" x="0px" y="0px"
	 viewBox="0 0 204.5 95.5" style="enable-background:new 0 0 204.5 95.5;" xml:space="preserve">
<style type="text/css">
	.st0{fill:#342865;}
</style>
<path class="st0" d="M201.2,79.5c-7.2-24.3-16.7-37.3-16.7-37.3c-14.8-21-47.1-12.4-47.1-12.4C111.4,32,92.5,19.3,92.5,19.3
	C72.4,1.5,44.8,1.5,44.8,1.5c-39.9,0.8-43,32.8-43,32.8c-3.5,36.8,32.9,26.3,47.9,20.5v0l0,0c1.1-0.4,2.1-0.8,2.9-1.2
	c3.3-1.1,9.3-2.6,17.4-2.3c2,0.1,4.1,0.3,6.4,0.6c0.8,0.1,1.5,0.2,2.1,0.2c11.8,1.4,26.6,4.2,41.8,7.4c15.3,3.5,45.2,11.5,58.7,23.7
	l0,0L186,89l0,0l2.4,1.7C196.5,95.7,207.5,99.7,201.2,79.5z"/>
</svg>
